<svg xmlns="http://www.w3.org/2000/svg" version="1.1" xmlns:xlink="http://www.w3.org/1999/xlink" xmlns:svgjs="http://svgjs.dev/svgjs" width="1670" height="855" preserveAspectRatio="none" viewBox="0 0 1670 855">
  <g mask="url(&quot;#SvgjsMask1053&quot;)" fill="none">
    <rect width="1670" height="855" x="0" y="0" fill="#0e2a47"></rect>
    <path d="M21 855L876 0L1462.5 0L607.5 855z" fill="url(&quot;#SvgjsLinearGradient1054&quot;)"></path>
    <path d="M658.1 855L1513.1 0L1739.6 0L884.6 855z" fill="url(&quot;#SvgjsLinearGradient1054&quot;)"></path>
    <path d="M1633 855L778 0L604 0L1459 855z" fill="url(&quot;#SvgjsLinearGradient1055&quot;)"></path>
    <path d="M1041.9 855L186.9000000000001 0L89.40000000000009 0L944.4000000000001 855z" fill="url(&quot;#SvgjsLinearGradient1055&quot;)"></path>
    <path d="M974.8424227926854 855L1670 159.8424227926854L1670 855z" fill="url(&quot;#SvgjsLinearGradient1054&quot;)"></path>
    <path d="M0 855L695.1575772073146 855L 0 159.8424227926854z" fill="url(&quot;#SvgjsLinearGradient1055&quot;)"></path>
  </g>
  <defs>
    <mask id="SvgjsMask1053">
      <rect width="1670" height="855" fill="#ffffff"></rect>
    </mask>
    <linearGradient x1="0%" y1="100%" x2="100%" y2="0%" id="SvgjsLinearGradient1054">
      <stop stop-color="rgba(15, 70, 185, 0.2)" offset="0"></stop>
      <stop stop-opacity="0" stop-color="rgba(15, 70, 185, 0.2)" offset="0.66"></stop>
    </linearGradient>
    <linearGradient x1="100%" y1="100%" x2="0%" y2="0%" id="SvgjsLinearGradient1055">
      <stop stop-color="rgba(15, 70, 185, 0.2)" offset="0"></stop>
      <stop stop-opacity="0" stop-color="rgba(15, 70, 185, 0.2)" offset="0.66"></stop>
    </linearGradient>
  </defs>
</svg>
